<svg aria-hidden="true" style="position: absolute; width: 0; height: 0; overflow: hidden;" version="1.1" xmlns="http://www.w3.org/2000/svg" xmlns:xlink="http://www.w3.org/1999/xlink">
<defs>
<symbol id="mob-menu" viewBox="0 0 32 32">
<path fill="none" stroke="#d41443" style="stroke: var(--color1, #d41443)" stroke-linejoin="miter" stroke-linecap="butt" stroke-miterlimit="4" stroke-width="1.6" d="M0 6.4h32M0 16h32M0 25.6h32"></path>
</symbol>
<symbol id="menu-close" viewBox="0 0 32 32">
<path fill="none" stroke="#d41443" style="stroke: var(--color2, #d41443)" stroke-linejoin="miter" stroke-linecap="butt" stroke-miterlimit="4" stroke-width="2" d="M2.52 2l26.96 28M2 29.48l28-26.96"></path>
</symbol>
<symbol id="btn-arrow" viewBox="0 0 32 32">
<path fill="none" stroke="#d41443" style="stroke: var(--color1, #d41443)" stroke-linejoin="round" stroke-linecap="round" stroke-miterlimit="4" stroke-width="6.4" d="M6.742 3.2l16.826 12.8-16.826 12.8"></path>
</symbol>
<symbol id="btn-arrow-1" viewBox="0 0 19 32">
<path fill="none" stroke="#fff" style="stroke: var(--color1, #fff)" stroke-linejoin="round" stroke-linecap="round" stroke-miterlimit="4" stroke-width="6.4" d="M3.2 3.2l11.552 12.8-11.552 12.8"></path>
</symbol>
<symbol id="btn-arrow-2" viewBox="0 0 26 32">
<path fill="none" stroke="#d41443" style="stroke: var(--color1, #d41443)" stroke-linejoin="round" stroke-linecap="round" stroke-miterlimit="4" stroke-width="6.4" d="M5.171 3.2l14.17 12.8-14.17 12.8"></path>
</symbol>
<symbol id="slider-home" viewBox="0 0 32 32">
<path fill="#d31342" style="fill: var(--color3, #d31342)" d="M30.129 15.446c0.236-0.253 0.381-0.594 0.381-0.969 0-0.433-0.194-0.822-0.499-1.082l-0.002-0.002-13.637-11.769c-0.295-0.244-0.677-0.393-1.093-0.393-0.43 0-0.823 0.158-1.124 0.419l0.002-0.002-13.681 12.372c-0.292 0.26-0.475 0.637-0.475 1.057 0 0.388 0.156 0.739 0.409 0.994l-0-0 0.345 0.352c0.566 0.586 1.487 0.655 2.053 0.155l1.022-0.903v13.226c0.006 0.811 0.665 1.467 1.477 1.467 0.004 0 0.009-0 0.013-0h5.331c0.004 0 0.008 0 0.012 0 0.812 0 1.471-0.656 1.477-1.467v-9.253h6.804v9.253c-0.012 0.812 0.576 1.467 1.398 1.467h5.652c0.003 0 0.006 0 0.010 0 0.812 0 1.471-0.656 1.477-1.467v-13.039l0.633 0.546c0.347 0.3 1.078 0.059 1.63-0.542l0.389-0.418z"></path>
</symbol>
<symbol id="slider-point" viewBox="0 0 32 32">
<path fill="#d9d9d9" style="fill: var(--color4, #d9d9d9)" d="M30.511 16c0 8.157-6.612 14.769-14.769 14.769s-14.769-6.612-14.769-14.769c0-8.157 6.612-14.769 14.769-14.769s14.769 6.612 14.769 14.769z"></path>
</symbol>
<symbol id="github" viewBox="0 0 32 32">
<path fill="#fff" style="fill: var(--color2, #fff)" d="M16 0.941c-8.272 0-15.059 6.789-15.059 15.059 0 7.059 4.954 13.47 11.53 15.059v-4.982c-0.651 0.144-1.251 0.147-1.915-0.048-0.89-0.264-1.613-0.856-2.149-1.76-0.342-0.576-0.949-1.203-1.581-1.157l-0.155-1.758c1.368-0.117 2.55 0.834 3.253 2.014 0.312 0.525 0.672 0.832 1.133 0.968 0.445 0.131 0.923 0.069 1.482-0.128 0.139-1.117 0.651-1.536 1.037-2.123-3.922-0.586-5.485-2.667-6.106-4.309-0.822-2.181-0.381-4.906 1.072-6.627 0.029-0.032 0.080-0.122 0.061-0.182-0.667-2.014 0.144-3.68 0.176-3.856 0.768 0.227 0.893-0.229 3.341 1.258l0.422 0.254c0.176 0.106 0.122 0.045 0.299 0.032 0.943-0.266 2.029-0.428 3.15-0.445l0.010-0c1.147 0.018 2.247 0.183 3.294 0.478l-0.090-0.022 0.138 0.014c-0.013-0.002 0.037-0.010 0.12-0.059 3.056-1.851 2.947-1.246 3.766-1.512 0.030 0.176 0.832 1.869 0.171 3.856-0.088 0.275 2.651 2.784 1.133 6.811-0.621 1.643-2.184 3.723-6.106 4.309 0.502 0.768 1.107 1.174 1.104 2.755v6.219c6.576-1.589 11.53-8 11.53-15.059 0-8.272-6.787-15.059-15.059-15.059z"></path>
</symbol>
<symbol id="telegram" viewBox="0 0 32 32">
<path fill="#fff" style="fill: var(--color2, #fff)" d="M12.965 19.8l-0.509 6.672c0.726 0 1.042-0.293 1.419-0.642l3.408-3.040 7.064 4.827c1.296 0.672 2.208 0.318 2.557-1.112l4.637-20.277h0.002c0.411-1.789-0.693-2.486-1.955-2.048l-27.251 9.738c-1.859 0.672-1.832 1.642-0.317 2.080l6.968 2.022 16.184-9.451c0.762-0.47 1.453-0.211 0.883 0.261l-13.090 10.97z"></path>
</symbol>
<symbol id="facebook" viewBox="0 0 32 32">
<path fill="#fff" style="fill: var(--color2, #fff)" d="M22.266 15.97h-4.176v15.39h-6.328v-15.392h-3.008v-5.408h3.008v-3.498c0-2.504 1.184-6.422 6.384-6.422l4.688 0.019v5.25h-3.402c-0.557 0-1.342 0.282-1.342 1.475v3.184h4.73l-0.554 5.4z"></path>
</symbol>
<symbol id="arrow-right2" viewBox="0 0 32 32">
<path d="M19.414 27.414l10-10c0.781-0.781 0.781-2.047 0-2.828l-10-10c-0.781-0.781-2.047-0.781-2.828 0s-0.781 2.047 0 2.828l6.586 6.586h-19.172c-1.105 0-2 0.895-2 2s0.895 2 2 2h19.172l-6.586 6.586c-0.39 0.39-0.586 0.902-0.586 1.414s0.195 1.024 0.586 1.414c0.781 0.781 2.047 0.781 2.828 0z"></path>
</symbol>
<symbol id="arrow-left2" viewBox="0 0 32 32">
<path d="M12.586 27.414l-10-10c-0.781-0.781-0.781-2.047 0-2.828l10-10c0.781-0.781 2.047-0.781 2.828 0s0.781 2.047 0 2.828l-6.586 6.586h19.172c1.105 0 2 0.895 2 2s-0.895 2-2 2h-19.172l6.586 6.586c0.39 0.39 0.586 0.902 0.586 1.414s-0.195 1.024-0.586 1.414c-0.781 0.781-2.047 0.781-2.828 0z"></path>
</symbol>
<symbol id="icon-phone" viewBox="0 0 32 32">
<path d="M24.882 19.774l-3.268-0.373c-0.090-0.011-0.194-0.018-0.3-0.018-0.707 0-1.347 0.287-1.81 0.75l-2.368 2.368c-3.669-1.894-6.585-4.81-8.427-8.372l-0.051-0.108 2.382-2.377c0.463-0.463 0.75-1.103 0.75-1.81 0-0.106-0.006-0.21-0.019-0.312l0.001 0.012-0.373-3.243c-0.155-1.287-1.24-2.276-2.557-2.276-0.001 0-0.002 0-0.003 0h-2.226c-1.454 0-2.663 1.209-2.574 2.661 0.683 10.987 9.47 19.762 20.444 20.444 1.452 0.089 2.663-1.12 2.663-2.574v-2.226c0-0.004 0-0.008 0-0.012 0-1.308-0.985-2.386-2.253-2.532l-0.012-0.001z"></path>
</symbol>
<symbol id="icon-email" viewBox="0 0 32 32">
<path d="M26.667 5.333h-21.333c-1.467 0-2.652 1.2-2.652 2.667l-0.014 16c0 1.467 1.2 2.667 2.667 2.667h21.333c1.467 0 2.667-1.2 2.667-2.667v-16c0-1.467-1.2-2.667-2.667-2.667zM26.133 11.001l-9.426 5.892c-0.201 0.126-0.446 0.2-0.708 0.2s-0.506-0.075-0.713-0.204l0.006 0.003-9.426-5.892c-0.336-0.201-0.557-0.562-0.557-0.975 0-0.625 0.507-1.132 1.132-1.132 0.233 0 0.449 0.070 0.629 0.19l-0.004-0.003 8.933 5.586 8.933-5.588c0.176-0.118 0.392-0.188 0.624-0.188 0.625 0 1.132 0.507 1.132 1.132 0 0.413-0.221 0.775-0.552 0.972l-0.005 0.003z"></path>
</symbol>
<symbol id="icon-person" viewBox="0 0 32 32">
<path d="M16 16c2.946 0 5.333-2.388 5.333-5.333s-2.388-5.333-5.333-5.333v0c-2.946 0-5.333 2.388-5.333 5.333s2.388 5.333 5.333 5.333v0zM16 18.667c-3.561 0-10.667 1.787-10.667 5.333v1.333c0 0.732 0.599 1.333 1.333 1.333h18.667c0.732 0 1.333-0.601 1.333-1.333v-1.333c0-3.547-7.108-5.333-10.667-5.333z"></path>
</symbol>
<symbol id="arrow-left2" viewBox="0 0 32 32">
<path d="M12.586 27.414l-10-10c-0.781-0.781-0.781-2.047 0-2.828l10-10c0.781-0.781 2.047-0.781 2.828 0s0.781 2.047 0 2.828l-6.586 6.586h19.172c1.105 0 2 0.895 2 2s-0.895 2-2 2h-19.172l6.586 6.586c0.39 0.39 0.586 0.902 0.586 1.414s-0.195 1.024-0.586 1.414c-0.781 0.781-2.047 0.781-2.828 0z"></path>
</symbol>
</defs>
<symbol id="icon-logo" viewBox="0 0 63 32">
<path d="M5.262 9.679h-0.763v-6.337h0.831l2.289 3.98 0.686 1.314h0.039q-0.029-0.483-0.063-1t-0.034-1.019v0-3.275h0.763v6.337h-0.831l-2.299-3.99-0.686-1.304h-0.039q0.039 0.483 0.072 0.981t0.034 1v0 3.314zM12.575 9.795v0q-0.473 0-0.884-0.169t-0.715-0.483-0.478-0.768-0.174-1.034v0q0-0.58 0.179-1.038t0.473-0.778 0.671-0.488 0.783-0.169v0q0.444 0 0.797 0.155t0.589 0.444 0.362 0.696 0.126 0.908v0q0 0.126-0.005 0.246t-0.024 0.208v0h-3.169q0.048 0.753 0.469 1.193t1.096 0.44v0q0.338 0 0.623-0.101t0.546-0.266v0l0.28 0.522q-0.309 0.193-0.686 0.338t-0.86 0.145zM11.097 6.955v0h2.512q0-0.715-0.304-1.087t-0.855-0.372v0q-0.251 0-0.478 0.097t-0.411 0.285-0.304 0.459-0.159 0.618zM17.367 9.795v0q-0.473 0-0.884-0.169t-0.715-0.483-0.478-0.768-0.174-1.034v0q0-0.58 0.179-1.038t0.473-0.778 0.671-0.488 0.782-0.169v0q0.444 0 0.797 0.155t0.589 0.444 0.362 0.696 0.126 0.908v0q0 0.126-0.005 0.246t-0.024 0.208v0h-3.169q0.048 0.753 0.469 1.193t1.096 0.44v0q0.338 0 0.623-0.101t0.546-0.266v0l0.28 0.522q-0.309 0.193-0.686 0.338t-0.86 0.145zM15.889 6.955v0h2.512q0-0.715-0.304-1.087t-0.855-0.372v0q-0.251 0-0.478 0.097t-0.411 0.285-0.304 0.459-0.159 0.618zM21.859 9.795v0q-0.889 0-1.415-0.638t-0.526-1.816v0q0-0.57 0.169-1.029t0.449-0.778 0.647-0.493 0.773-0.174v0q0.406 0 0.705 0.145t0.609 0.396v0l-0.039-0.802v-1.806h0.802v6.878h-0.657l-0.068-0.551h-0.029q-0.28 0.271-0.642 0.469t-0.778 0.198zM22.033 9.129v0q0.328 0 0.618-0.159t0.58-0.488v0-2.454q-0.299-0.271-0.575-0.382t-0.565-0.111v0q-0.28 0-0.526 0.13t-0.43 0.367-0.29 0.565-0.106 0.734v0q0 0.85 0.338 1.323t0.956 0.473zM28.341 11.66h-0.792v-6.675h0.657l0.068 0.541h0.029q0.319-0.271 0.7-0.464t0.797-0.193v0q0.454 0 0.802 0.169t0.58 0.483 0.353 0.753 0.121 0.99v0q0 0.599-0.164 1.067t-0.444 0.797-0.647 0.498-0.773 0.169v0q-0.328 0-0.652-0.145t-0.652-0.396v0l0.019 0.821v1.584zM29.491 9.129v0q0.29 0 0.536-0.13t0.425-0.367 0.28-0.584 0.101-0.782v0q0-0.386-0.068-0.705t-0.217-0.546-0.386-0.353-0.565-0.126v0q-0.299 0-0.604 0.164t-0.652 0.473v0 2.463q0.319 0.271 0.618 0.382t0.531 0.111zM33.702 9.679h-0.792v-4.695h0.657l0.068 0.85h0.029q0.242-0.444 0.584-0.705t0.749-0.261v0q0.28 0 0.502 0.097v0l-0.155 0.696q-0.116-0.039-0.213-0.058t-0.242-0.019v0q-0.299 0-0.623 0.242t-0.565 0.84v0 3.014zM37.113 9.795v0q-0.589 0-0.981-0.348t-0.391-0.985v0q0-0.773 0.686-1.183t2.193-0.575v0q0-0.222-0.043-0.435t-0.15-0.377-0.295-0.266-0.478-0.101v0q-0.406 0-0.763 0.155t-0.638 0.348v0l-0.309-0.551q0.328-0.213 0.802-0.411t1.043-0.198v0q0.86 0 1.246 0.526t0.386 1.406v0 2.879h-0.657l-0.068-0.56h-0.029q-0.338 0.28-0.725 0.478t-0.831 0.198zM37.344 9.158v0q0.338 0 0.638-0.159t0.638-0.469v0-1.304q-0.589 0.077-0.99 0.184t-0.647 0.251-0.357 0.333-0.111 0.411v0q0 0.406 0.242 0.58t0.589 0.174zM42.754 9.795v0q-0.464 0-0.869-0.164t-0.7-0.478-0.464-0.773-0.169-1.038v0q0-0.589 0.184-1.048t0.493-0.778 0.72-0.483 0.865-0.164v0q0.464 0 0.792 0.164t0.58 0.386v0l-0.406 0.522q-0.203-0.184-0.43-0.299t-0.507-0.116v0q-0.319 0-0.589 0.13t-0.464 0.372-0.304 0.575-0.111 0.739v0q0 0.406 0.106 0.734t0.295 0.565 0.459 0.367 0.589 0.13v0q0.328 0 0.604-0.14t0.498-0.333v0l0.348 0.531q-0.319 0.28-0.705 0.44t-0.811 0.159zM46.686 9.795v0q-0.377 0-0.633-0.116t-0.415-0.319-0.227-0.493-0.068-0.638v0-2.599h-0.696v-0.599l0.734-0.048 0.097-1.314h0.667v1.314h1.266v0.647h-1.266v2.608q0 0.435 0.159 0.671t0.565 0.237v0q0.126 0 0.27-0.039t0.261-0.087v0l0.155 0.599q-0.193 0.068-0.42 0.121t-0.449 0.053zM49.265 9.679h-0.792v-4.695h0.792v4.695zM48.879 4.018v0q-0.232 0-0.391-0.145t-0.159-0.367v0q0-0.232 0.159-0.372t0.391-0.14v0q0.232 0 0.391 0.14t0.159 0.372v0q0 0.222-0.159 0.367t-0.391 0.145zM52.704 9.795v0q-0.464 0-0.869-0.164t-0.7-0.478-0.464-0.773-0.169-1.038v0q0-0.589 0.184-1.048t0.493-0.778 0.72-0.483 0.865-0.164v0q0.464 0 0.792 0.164t0.58 0.386v0l-0.406 0.522q-0.203-0.184-0.43-0.299t-0.507-0.116v0q-0.319 0-0.589 0.13t-0.464 0.372-0.304 0.575-0.111 0.739v0q0 0.406 0.106 0.734t0.295 0.565 0.459 0.367 0.589 0.13v0q0.328 0 0.604-0.14t0.498-0.333v0l0.348 0.531q-0.319 0.28-0.705 0.44t-0.811 0.159zM57.158 9.795v0q-0.473 0-0.884-0.169t-0.715-0.483-0.478-0.768-0.174-1.034v0q0-0.58 0.179-1.038t0.473-0.778 0.671-0.488 0.782-0.169v0q0.444 0 0.797 0.155t0.589 0.444 0.362 0.696 0.126 0.908v0q0 0.126-0.005 0.246t-0.024 0.208v0h-3.169q0.048 0.753 0.469 1.193t1.096 0.44v0q0.338 0 0.623-0.101t0.546-0.266v0l0.28 0.522q-0.309 0.193-0.686 0.338t-0.86 0.145zM55.68 6.955v0h2.512q0-0.715-0.304-1.087t-0.855-0.372v0q-0.251 0-0.478 0.097t-0.411 0.285-0.304 0.459-0.159 0.618zM11.378 19.34h-0.763v-6.337h0.831l2.29 3.98 0.686 1.314h0.039q-0.029-0.483-0.063-1t-0.034-1.019v0-3.275h0.763v6.337h-0.831l-2.299-3.99-0.686-1.304h-0.039q0.039 0.483 0.072 0.981t0.034 1v0 3.314zM18.691 19.456v0q-0.473 0-0.884-0.169t-0.715-0.483-0.478-0.768-0.174-1.034v0q0-0.58 0.179-1.038t0.473-0.778 0.671-0.488 0.782-0.169v0q0.444 0 0.797 0.155t0.589 0.444 0.362 0.696 0.126 0.908v0q0 0.126-0.005 0.246t-0.024 0.208v0h-3.169q0.048 0.753 0.469 1.193t1.096 0.44v0q0.338 0 0.623-0.101t0.546-0.266v0l0.28 0.522q-0.309 0.193-0.686 0.338t-0.86 0.145zM17.213 16.615v0h2.512q0-0.715-0.304-1.087t-0.855-0.372v0q-0.251 0-0.478 0.097t-0.411 0.285-0.304 0.459-0.159 0.618zM23.482 19.456v0q-0.473 0-0.884-0.169t-0.715-0.483-0.478-0.768-0.174-1.034v0q0-0.58 0.179-1.038t0.473-0.778 0.671-0.488 0.782-0.169v0q0.444 0 0.797 0.155t0.589 0.444 0.362 0.696 0.126 0.908v0q0 0.126-0.005 0.246t-0.024 0.208v0h-3.169q0.048 0.753 0.469 1.193t1.096 0.44v0q0.338 0 0.623-0.101t0.546-0.266v0l0.28 0.522q-0.309 0.193-0.686 0.338t-0.86 0.145zM22.004 16.615v0h2.512q0-0.715-0.304-1.087t-0.855-0.372v0q-0.251 0-0.478 0.097t-0.411 0.285-0.304 0.459-0.159 0.618zM27.974 19.456v0q-0.889 0-1.415-0.638t-0.526-1.816v0q0-0.57 0.169-1.029t0.449-0.778 0.647-0.493 0.773-0.174v0q0.406 0 0.705 0.145t0.609 0.396v0l-0.039-0.802v-1.806h0.802v6.878h-0.657l-0.068-0.551h-0.029q-0.28 0.27-0.642 0.469t-0.778 0.198zM28.148 18.789v0q0.328 0 0.618-0.159t0.58-0.488v0-2.454q-0.299-0.271-0.575-0.382t-0.565-0.111v0q-0.28 0-0.526 0.13t-0.43 0.367-0.29 0.565-0.106 0.734v0q0 0.85 0.338 1.323t0.956 0.473zM35.336 19.34h-0.927l-1.304-4.695h0.811l0.696 2.715q0.077 0.338 0.145 0.657t0.135 0.647v0h0.039q0.077-0.328 0.155-0.652t0.164-0.652v0l0.725-2.715h0.773l0.734 2.715q0.087 0.338 0.169 0.657t0.159 0.647v0h0.039q0.077-0.328 0.145-0.647t0.145-0.657v0l0.686-2.715h0.754l-1.256 4.695h-0.966l-0.676-2.521q-0.087-0.338-0.159-0.667t-0.159-0.686v0h-0.039q-0.077 0.357-0.155 0.691t-0.174 0.671v0l-0.657 2.512zM42.388 19.456v0q-0.435 0-0.826-0.164t-0.691-0.478-0.478-0.773-0.179-1.038v0q0-0.589 0.179-1.048t0.478-0.778 0.691-0.483 0.826-0.164v0q0.435 0 0.826 0.164t0.691 0.483 0.478 0.778 0.179 1.048v0q0 0.58-0.179 1.038t-0.478 0.773-0.691 0.478-0.826 0.164zM42.388 18.799v0q0.299 0 0.551-0.13t0.43-0.367 0.275-0.565 0.097-0.734v0q0-0.406-0.097-0.739t-0.275-0.575-0.43-0.372-0.551-0.13v0q-0.299 0-0.551 0.13t-0.43 0.372-0.275 0.575-0.097 0.739v0q0 0.406 0.097 0.734t0.275 0.565 0.43 0.367 0.551 0.13zM46.59 19.34h-0.792v-4.695h0.657l0.068 0.85h0.029q0.242-0.444 0.584-0.705t0.749-0.261v0q0.28 0 0.502 0.097v0l-0.155 0.696q-0.116-0.039-0.213-0.058t-0.242-0.019v0q-0.299 0-0.623 0.242t-0.565 0.84v0 3.014zM49.932 19.34h-0.782v-6.878h0.782v4.656h0.029l2-2.473h0.879l-1.575 1.884 1.787 2.811h-0.869l-1.372-2.261-0.879 1.024v1.237zM7.614 29h-0.763v-6.337h0.831l2.289 3.98 0.686 1.314h0.039q-0.029-0.483-0.063-1t-0.034-1.019v0-3.275h0.763v6.337h-0.831l-2.299-3.99-0.686-1.304h-0.039q0.039 0.483 0.072 0.981t0.034 1v0 3.314zM14.927 29.116v0q-0.473 0-0.884-0.169t-0.715-0.483-0.478-0.768-0.174-1.034v0q0-0.58 0.179-1.038t0.473-0.778 0.671-0.488 0.783-0.169v0q0.444 0 0.797 0.155t0.589 0.444 0.362 0.696 0.126 0.908v0q0 0.126-0.005 0.246t-0.024 0.208v0h-3.169q0.048 0.753 0.469 1.193t1.096 0.44v0q0.338 0 0.623-0.101t0.546-0.266v0l0.28 0.522q-0.309 0.193-0.686 0.338t-0.86 0.145zM13.449 26.276v0h2.512q0-0.715-0.304-1.087t-0.855-0.372v0q-0.251 0-0.478 0.097t-0.411 0.285-0.304 0.459-0.159 0.618zM19.718 29.116v0q-0.473 0-0.884-0.169t-0.715-0.483-0.478-0.768-0.174-1.034v0q0-0.58 0.179-1.038t0.473-0.778 0.671-0.488 0.782-0.169v0q0.444 0 0.797 0.155t0.589 0.444 0.362 0.696 0.126 0.908v0q0 0.126-0.005 0.246t-0.024 0.208v0h-3.169q0.048 0.753 0.469 1.193t1.096 0.44v0q0.338 0 0.623-0.101t0.546-0.266v0l0.28 0.522q-0.309 0.193-0.686 0.338t-0.86 0.145zM18.24 26.276v0h2.512q0-0.715-0.304-1.087t-0.855-0.372v0q-0.251 0-0.478 0.097t-0.411 0.285-0.304 0.459-0.159 0.618zM24.21 29.116v0q-0.889 0-1.415-0.638t-0.526-1.816v0q0-0.57 0.169-1.029t0.449-0.778 0.647-0.493 0.773-0.174v0q0.406 0 0.705 0.145t0.609 0.396v0l-0.039-0.802v-1.806h0.802v6.878h-0.657l-0.068-0.551h-0.029q-0.28 0.27-0.642 0.469t-0.778 0.198zM24.384 28.449v0q0.328 0 0.618-0.159t0.58-0.488v0-2.454q-0.299-0.27-0.575-0.382t-0.565-0.111v0q-0.28 0-0.526 0.13t-0.43 0.367-0.29 0.565-0.106 0.734v0q0 0.85 0.338 1.323t0.956 0.473zM30.692 29h-0.792v-4.695h0.657l0.068 0.676h0.029q0.309-0.338 0.671-0.565t0.787-0.227v0q0.541 0 0.845 0.237t0.449 0.662v0q0.367-0.406 0.739-0.652t0.807-0.246v0q0.725 0 1.077 0.464t0.353 1.372v0 2.975h-0.792v-2.869q0-0.667-0.213-0.961t-0.657-0.295v0q-0.531 0-1.179 0.725v0 3.4h-0.792v-2.869q0-0.667-0.213-0.961t-0.667-0.295v0q-0.531 0-1.179 0.725v0 3.4zM39.734 29.116v0q-0.435 0-0.826-0.164t-0.691-0.478-0.478-0.773-0.179-1.038v0q0-0.589 0.179-1.048t0.478-0.778 0.691-0.483 0.826-0.164v0q0.435 0 0.826 0.164t0.691 0.483 0.478 0.778 0.179 1.048v0q0 0.58-0.179 1.038t-0.478 0.773-0.691 0.478-0.826 0.164zM39.734 28.459v0q0.299 0 0.551-0.13t0.43-0.367 0.275-0.565 0.097-0.734v0q0-0.406-0.097-0.739t-0.275-0.575-0.43-0.372-0.551-0.13v0q-0.299 0-0.551 0.13t-0.43 0.372-0.275 0.575-0.097 0.739v0q0 0.406 0.097 0.734t0.275 0.565 0.43 0.367 0.551 0.13zM43.937 29h-0.792v-4.695h0.657l0.068 0.676h0.029q0.338-0.338 0.71-0.565t0.865-0.227v0q0.744 0 1.087 0.464t0.343 1.372v0 2.975h-0.792v-2.869q0-0.667-0.213-0.961t-0.676-0.295v0q-0.367 0-0.647 0.184t-0.638 0.541v0 3.4zM48.506 31.019v0q-0.164 0-0.299-0.024t-0.251-0.072v0l0.155-0.628q0.077 0.019 0.174 0.043t0.184 0.024v0q0.406 0 0.662-0.285t0.401-0.72v0l0.106-0.348-1.884-4.705h0.821l0.956 2.599q0.106 0.309 0.227 0.652t0.227 0.671v0h0.039q0.106-0.319 0.203-0.667t0.193-0.657v0l0.84-2.599h0.773l-1.768 5.081q-0.126 0.348-0.28 0.647t-0.367 0.517-0.483 0.343-0.628 0.126zM54.805 29.116v0q-0.473 0-0.884-0.169t-0.715-0.483-0.478-0.768-0.174-1.034v0q0-0.58 0.179-1.038t0.473-0.778 0.671-0.488 0.782-0.169v0q0.444 0 0.797 0.155t0.589 0.444 0.362 0.696 0.126 0.908v0q0 0.126-0.005 0.246t-0.024 0.208v0h-3.169q0.048 0.753 0.469 1.193t1.096 0.44v0q0.338 0 0.623-0.101t0.546-0.266v0l0.28 0.522q-0.309 0.193-0.686 0.338t-0.86 0.145zM53.327 26.276v0h2.512q0-0.715-0.304-1.087t-0.855-0.372v0q-0.251 0-0.478 0.097t-0.411 0.285-0.304 0.459-0.159 0.618z"></path>
</symbol>


</svg>
